# xmcd
#
# Track frame offsets: 
#        150
#        16584
#        36641
#        55377
#        75849
#        95421
#        115716
#
# Disc length: 1809 seconds
#
# Revision: 0
# Processed by: cddbd v1.5.2PL0 Copyright (c) Steve Scherf et al.
# Submitted via: ExactAudioCopy v1.0b3
#
DISCID=48070f07
DTITLE=김범수 - Solista Part1
DYEAR=2010
DGENRE=Ballad
TTITLE0=언젠가는 (with 이승철)
TTITLE1=지나간다
TTITLE2=피우든 마시든
TTITLE3=괜찮다..
TTITLE4=그대가 들려요
TTITLE5=지.못.미
TTITLE6=지나간다 MR
EXTD=
EXTT0=
EXTT1=
EXTT2=
EXTT3=
EXTT4=
EXTT5=
EXTT6=
PLAYORDER=
